# xmcd
#
# Track frame offsets: 
#        150
#        16508
#        30139
#        43930
#        57761
#        75365
#        93569
#        113215
#        127069
#        138664
#        150106
#        163563
#        178222
#        193883
#        210106
#
# Disc length: 2996 seconds
#
# Revision: 0
# Processed by: cddbd v1.5.2PL0 Copyright (c) Steve Scherf et al.
# Submitted via: ExactAudioCopyFreeDBPlugin 1.0
#
DISCID=b50bb20f
DTITLE=The Smoky Mountain Band - Smokie Mountain Memories Disk 2
DYEAR=1900
DGENRE=Bluegrass
TTITLE0=Down In The Willow Garden
TTITLE1=On Top Of Old Smoky
TTITLE2=Soldier's Boy
TTITLE3=Red River Valley
TTITLE4=I Am A Pilgrim
TTITLE5=Cherokee Shuffle
TTITLE6=Old Joe Clark
TTITLE7=Wayfaring Stranger
TTITLE8=She'll Be Coming Round The Mountain
TTITLE9=Talk About Suffering
TTITLE10=Cindy
TTITLE11=O Susanna
TTITLE12=Red Wing
TTITLE13=That Old Rugged Cross
TTITLE14=De Camptown Races
EXTD=
EXTT0=
EXTT1=
EXTT2=
EXTT3=
EXTT4=
EXTT5=
EXTT6=
EXTT7=
EXTT8=
EXTT9=
EXTT10=
EXTT11=
EXTT12=
EXTT13=
EXTT14=
PLAYORDER=
